<svg width="40" height="41" viewBox="0 0 40 41" fill="none" xmlns="http://www.w3.org/2000/svg">
<path d="M22.3112 4.01974L24.385 1.85823L25.2682 4.72057L25.4627 5.35121L26.0172 4.99318L28.5336 3.36819L28.7329 6.35705L28.7768 7.01557L29.3988 6.79506L32.2222 5.79419L31.7268 8.74844L31.6176 9.39933L32.2738 9.32821L35.2518 9.00544L34.0885 11.7658L33.8322 12.374L34.487 12.4561L37.4592 12.8288L35.6907 15.2465L35.301 15.7792L35.9193 16.0101L38.7254 17.0582L36.447 19.0028L35.945 19.4313L36.4933 19.7986L38.9821 21.4656L36.3166 22.8324L35.7294 23.1335L36.1782 23.6173L38.2155 25.8133L35.3066 26.5286L34.6657 26.6862L34.9909 27.2605L36.4669 29.8671L33.4715 29.8923L32.8115 29.8978L32.9955 30.5316L33.8305 33.4084L30.9101 32.7421L30.2666 32.5952L30.2995 33.2544L30.4485 36.2462L27.7605 34.9243L27.1682 34.6331L27.0482 35.2821L26.5033 38.2276L24.1925 36.3214L23.6834 35.9015L23.4169 36.5053L22.2074 39.2457L20.3985 36.8581L20 36.332L19.6015 36.8581L17.7926 39.2457L16.5831 36.5053L16.3166 35.9015L15.8075 36.3214L13.4967 38.2276L12.9518 35.2821L12.8318 34.6331L12.2395 34.9243L9.55148 36.2462L9.70055 33.2544L9.73339 32.5952L9.08995 32.7421L6.16951 33.4084L7.00451 30.5316L7.18849 29.8978L6.52853 29.8923L3.53314 29.8671L5.00907 27.2605L5.33425 26.6862L4.69336 26.5286L1.78451 25.8133L3.82178 23.6173L4.27065 23.1335L3.68337 22.8324L1.01788 21.4656L3.50667 19.7986L4.05502 19.4313L3.55302 19.0028L1.27458 17.0582L4.08072 16.0101L4.69899 15.7792L4.30933 15.2465L2.54077 12.8288L5.51298 12.4561L6.16784 12.374L5.91153 11.7658L4.7482 9.00544L7.72625 9.32821L8.38238 9.39933L8.27324 8.74844L7.77785 5.79419L10.6012 6.79506L11.2232 7.01557L11.2671 6.35705L11.4664 3.36819L13.9828 4.99318L14.5373 5.35121L14.7318 4.72057L15.615 1.85823L17.6888 4.01974L18.1458 4.49598L18.4805 3.92721L20 1.3457L21.5195 3.92721L21.8542 4.49598L22.3112 4.01974Z" fill="#5B67D6" stroke="#5B67D6"/>
<path d="M25.0741 23.2237C25.1548 23.2237 25.2205 23.1584 25.2205 23.0773C25.2205 22.9962 25.1553 22.9309 25.0741 22.9309C24.993 22.9309 24.9277 22.9962 24.9277 23.0773C24.9277 23.1584 24.993 23.2237 25.0741 23.2237Z" fill="white"/>
<path d="M25.5771 22.95C25.6579 22.95 25.7235 22.8845 25.7235 22.8036C25.7235 22.7228 25.6579 22.6572 25.5771 22.6572C25.4962 22.6572 25.4307 22.7228 25.4307 22.8036C25.4307 22.8845 25.4962 22.95 25.5771 22.95Z" fill="white"/>
<path d="M26.08 22.676C26.1608 22.676 26.2264 22.6104 26.2264 22.5296C26.2264 22.4487 26.1608 22.3832 26.08 22.3832C25.9991 22.3832 25.9336 22.4487 25.9336 22.5296C25.9336 22.6104 25.9991 22.676 26.08 22.676Z" fill="white"/>
<path d="M26.5839 22.4019C26.6645 22.4019 26.7303 22.3367 26.7303 22.2555C26.7303 22.1744 26.665 22.1091 26.5839 22.1091C26.5028 22.1091 26.4375 22.1744 26.4375 22.2555C26.4375 22.3367 26.5028 22.4019 26.5839 22.4019Z" fill="white"/>
<path d="M27.0868 22.1284C27.1675 22.1284 27.2332 22.0631 27.2332 21.982C27.2332 21.9009 27.168 21.8356 27.0868 21.8356C27.0057 21.8356 26.9404 21.9009 26.9404 21.982C26.9404 22.0631 27.0057 22.1284 27.0868 22.1284Z" fill="white"/>
<path d="M27.5898 21.5619C27.5091 21.5619 27.4434 21.6272 27.4434 21.7083C27.4434 21.7894 27.5086 21.8547 27.5898 21.8547C27.6709 21.8547 27.7362 21.7894 27.7362 21.7083C27.7362 21.6272 27.6709 21.5619 27.5898 21.5619Z" fill="white"/>
<path d="M28.0932 21.2878C28.0125 21.2878 27.9468 21.3531 27.9468 21.4342C27.9468 21.5154 28.0121 21.5806 28.0932 21.5806C28.1743 21.5806 28.2396 21.5154 28.2396 21.4342C28.2396 21.3531 28.1743 21.2878 28.0932 21.2878Z" fill="white"/>
<path d="M28.5961 21.0143C28.5155 21.0143 28.4497 21.0796 28.4497 21.1607C28.4497 21.2418 28.515 21.3071 28.5961 21.3071C28.6772 21.3071 28.7425 21.2418 28.7425 21.1607C28.7425 21.0796 28.6772 21.0143 28.5961 21.0143Z" fill="white"/>
<path d="M25.6591 22.3107C25.7397 22.3107 25.8055 22.2455 25.8055 22.1643C25.8055 22.0832 25.7402 22.0179 25.6591 22.0179C25.578 22.0179 25.5127 22.0832 25.5127 22.1643C25.5127 22.2455 25.578 22.3107 25.6591 22.3107Z" fill="white"/>
<path d="M26.162 22.0367C26.2427 22.0367 26.3084 21.9714 26.3084 21.8903C26.3084 21.8092 26.2431 21.7439 26.162 21.7439C26.0809 21.7439 26.0156 21.8092 26.0156 21.8903C26.0156 21.9714 26.0809 22.0367 26.162 22.0367Z" fill="white"/>
<path d="M26.6659 21.763C26.7466 21.763 26.8123 21.6977 26.8123 21.6166C26.8123 21.5355 26.7471 21.4702 26.6659 21.4702C26.5848 21.4702 26.5195 21.5355 26.5195 21.6166C26.5195 21.6977 26.5848 21.763 26.6659 21.763Z" fill="white"/>
<path d="M27.1689 21.489C27.2495 21.489 27.3153 21.4237 27.3153 21.3426C27.3153 21.2614 27.25 21.1962 27.1689 21.1962C27.0877 21.1962 27.0225 21.2614 27.0225 21.3426C27.0225 21.4237 27.0877 21.489 27.1689 21.489Z" fill="white"/>
<path d="M27.6723 21.2154C27.7529 21.2154 27.8187 21.1501 27.8187 21.069C27.8187 20.9879 27.7534 20.9226 27.6723 20.9226C27.5912 20.9226 27.5259 20.9879 27.5259 21.069C27.5259 21.1501 27.5912 21.2154 27.6723 21.2154Z" fill="white"/>
<path d="M28.1752 20.6489C28.0946 20.6489 28.0288 20.7142 28.0288 20.7953C28.0288 20.8764 28.0941 20.9417 28.1752 20.9417C28.2563 20.9417 28.3216 20.8764 28.3216 20.7953C28.3216 20.7142 28.2563 20.6489 28.1752 20.6489Z" fill="white"/>
<path d="M28.6786 20.6677C28.7595 20.6677 28.825 20.6021 28.825 20.5213C28.825 20.4404 28.7595 20.3749 28.6786 20.3749C28.5978 20.3749 28.5322 20.4404 28.5322 20.5213C28.5322 20.6021 28.5978 20.6677 28.6786 20.6677Z" fill="white"/>
<path d="M26.2445 21.3978C26.3254 21.3978 26.3909 21.3322 26.3909 21.2514C26.3909 21.1705 26.3254 21.105 26.2445 21.105C26.1637 21.105 26.0981 21.1705 26.0981 21.2514C26.0981 21.3322 26.1637 21.3978 26.2445 21.3978Z" fill="white"/>
<path d="M26.748 21.1242C26.8288 21.1242 26.8944 21.0587 26.8944 20.9778C26.8944 20.897 26.8288 20.8314 26.748 20.8314C26.6671 20.8314 26.6016 20.897 26.6016 20.9778C26.6016 21.0587 26.6671 21.1242 26.748 21.1242Z" fill="white"/>
<path d="M27.2509 20.8501C27.3317 20.8501 27.3973 20.7845 27.3973 20.7037C27.3973 20.6228 27.3317 20.5573 27.2509 20.5573C27.17 20.5573 27.1045 20.6228 27.1045 20.7037C27.1045 20.7845 27.17 20.8501 27.2509 20.8501Z" fill="white"/>
<path d="M27.7543 20.576C27.8349 20.576 27.9007 20.5107 27.9007 20.4296C27.9007 20.3485 27.8354 20.2832 27.7543 20.2832C27.6732 20.2832 27.6079 20.3485 27.6079 20.4296C27.6079 20.5107 27.6732 20.576 27.7543 20.576Z" fill="white"/>
<path d="M28.2572 20.3024C28.3379 20.3024 28.4036 20.2372 28.4036 20.156C28.4036 20.0749 28.3384 20.0096 28.2572 20.0096C28.1761 20.0096 28.1108 20.0749 28.1108 20.156C28.1108 20.2372 28.1761 20.3024 28.2572 20.3024Z" fill="white"/>
<path d="M28.7607 19.736C28.68 19.736 28.6143 19.8012 28.6143 19.8824C28.6143 19.9635 28.6795 20.0288 28.7607 20.0288C28.8418 20.0288 28.9071 19.9635 28.9071 19.8824C28.9071 19.8012 28.8418 19.736 28.7607 19.736Z" fill="white"/>
<path d="M26.83 20.4848C26.9106 20.4848 26.9764 20.4195 26.9764 20.3384C26.9764 20.2573 26.9111 20.192 26.83 20.192C26.7489 20.192 26.6836 20.2573 26.6836 20.3384C26.6836 20.4195 26.7489 20.4848 26.83 20.4848Z" fill="white"/>
<path d="M27.3329 20.2113C27.4138 20.2113 27.4793 20.1457 27.4793 20.0649C27.4793 19.984 27.4138 19.9185 27.3329 19.9185C27.2521 19.9185 27.1865 19.984 27.1865 20.0649C27.1865 20.1457 27.2521 20.2113 27.3329 20.2113Z" fill="white"/>
<path d="M27.8363 19.9371C27.9172 19.9371 27.9827 19.8715 27.9827 19.7907C27.9827 19.7098 27.9172 19.6443 27.8363 19.6443C27.7555 19.6443 27.6899 19.7098 27.6899 19.7907C27.6899 19.8715 27.7555 19.9371 27.8363 19.9371Z" fill="white"/>
<path d="M28.3398 19.6635C28.4206 19.6635 28.4862 19.598 28.4862 19.5171C28.4862 19.4363 28.4206 19.3707 28.3398 19.3707C28.2589 19.3707 28.1934 19.4363 28.1934 19.5171C28.1934 19.598 28.2589 19.6635 28.3398 19.6635Z" fill="white"/>
<path d="M28.8427 19.3895C28.9233 19.3895 28.9891 19.3242 28.9891 19.2431C28.9891 19.162 28.9238 19.0967 28.8427 19.0967C28.7616 19.0967 28.6963 19.162 28.6963 19.2431C28.6963 19.3242 28.7616 19.3895 28.8427 19.3895Z" fill="white"/>
<path d="M27.415 19.5719C27.4956 19.5719 27.5614 19.5066 27.5614 19.4255C27.5614 19.3443 27.4961 19.2791 27.415 19.2791C27.3338 19.2791 27.2686 19.3443 27.2686 19.4255C27.2686 19.5066 27.3338 19.5719 27.415 19.5719Z" fill="white"/>
<path d="M27.9184 19.2978C27.999 19.2978 28.0648 19.2325 28.0648 19.1514C28.0648 19.0703 27.9995 19.005 27.9184 19.005C27.8373 19.005 27.772 19.0703 27.772 19.1514C27.772 19.2325 27.8373 19.2978 27.9184 19.2978Z" fill="white"/>
<path d="M28.4218 19.0241C28.5026 19.0241 28.5682 18.9586 28.5682 18.8777C28.5682 18.7969 28.5026 18.7313 28.4218 18.7313C28.3409 18.7313 28.2754 18.7969 28.2754 18.8777C28.2754 18.9586 28.3409 19.0241 28.4218 19.0241Z" fill="white"/>
<path d="M28.9252 18.7506C29.0061 18.7506 29.0716 18.685 29.0716 18.6042C29.0716 18.5233 29.0061 18.4578 28.9252 18.4578C28.8444 18.4578 28.7788 18.5233 28.7788 18.6042C28.7788 18.685 28.8444 18.7506 28.9252 18.7506Z" fill="white"/>
<path d="M28.0004 18.6589C28.081 18.6589 28.1468 18.5936 28.1468 18.5125C28.1468 18.4314 28.0815 18.3661 28.0004 18.3661C27.9193 18.3661 27.854 18.4314 27.854 18.5125C27.854 18.5936 27.9193 18.6589 28.0004 18.6589Z" fill="white"/>
<path d="M28.5038 18.3848C28.5845 18.3848 28.6502 18.3196 28.6502 18.2384C28.6502 18.1573 28.5849 18.092 28.5038 18.092C28.4227 18.092 28.3574 18.1573 28.3574 18.2384C28.3574 18.3196 28.4227 18.3848 28.5038 18.3848Z" fill="white"/>
<path d="M29.0072 18.1112C29.0879 18.1112 29.1536 18.0459 29.1536 17.9648C29.1536 17.8836 29.0884 17.8184 29.0072 17.8184C28.9261 17.8184 28.8608 17.8836 28.8608 17.9648C28.8608 18.0459 28.9261 18.1112 29.0072 18.1112Z" fill="white"/>
<path d="M28.5859 17.7459C28.6665 17.7459 28.7323 17.6806 28.7323 17.5995C28.7323 17.5184 28.667 17.4531 28.5859 17.4531C28.5047 17.4531 28.4395 17.5184 28.4395 17.5995C28.4395 17.6806 28.5047 17.7459 28.5859 17.7459Z" fill="white"/>
<path d="M29.0893 17.4719C29.1699 17.4719 29.2357 17.4066 29.2357 17.3255C29.2357 17.2444 29.1704 17.1791 29.0893 17.1791C29.0082 17.1791 28.9429 17.2444 28.9429 17.3255C28.9429 17.4066 29.0082 17.4719 29.0893 17.4719Z" fill="white"/>
<path d="M29.1713 16.833C29.2522 16.833 29.3177 16.7674 29.3177 16.6866C29.3177 16.6057 29.2522 16.5402 29.1713 16.5402C29.0904 16.5402 29.0249 16.6057 29.0249 16.6866C29.0249 16.7674 29.0904 16.833 29.1713 16.833Z" fill="white"/>
<path d="M30.4842 15.1918C30.4842 15.1918 30.4842 15.1884 30.4842 15.1865C30.4842 15.1827 30.4842 15.1788 30.4837 15.175C30.4837 15.1635 30.4823 15.152 30.4808 15.1404C30.4804 15.1366 30.4799 15.1328 30.4789 15.1284C30.4736 15.0987 30.465 15.0704 30.453 15.0435C30.4516 15.0406 30.4501 15.0377 30.4492 15.0348C30.4439 15.0238 30.4381 15.0128 30.4319 15.0027C30.4304 14.9998 30.429 14.9974 30.4271 14.9945C30.4189 14.982 30.4108 14.9705 30.4012 14.9595C30.3992 14.9576 30.3973 14.9556 30.3954 14.9532C30.3872 14.9441 30.3791 14.9355 30.37 14.9268C30.3671 14.924 30.3642 14.9216 30.3613 14.9187C30.3503 14.9091 30.3383 14.8995 30.3263 14.8913C30.3263 14.8913 30.3263 14.8913 30.3258 14.8913C30.3133 14.8832 30.3004 14.876 30.2874 14.8692C30.2845 14.8678 30.2812 14.8664 30.2783 14.8649C30.2658 14.8592 30.2533 14.8539 30.2404 14.8496C30.2389 14.8496 30.238 14.8486 30.2365 14.8481C30.2226 14.8433 30.2077 14.84 30.1928 14.8371C30.1895 14.8366 30.1866 14.8361 30.1832 14.8356C30.1722 14.8337 30.1607 14.8323 30.1492 14.8318C30.1448 14.8318 30.1405 14.8313 30.1357 14.8308C30.1324 14.8308 30.1295 14.8304 30.1266 14.8304L20.553 14.7948C20.4925 14.7939 20.432 14.8097 20.3783 14.8395L13.5964 18.5614C13.474 18.6286 13.4063 18.7568 13.4101 18.8878L12.6138 25.5665C12.6018 25.6688 12.634 25.771 12.7021 25.8483C12.7703 25.9251 12.8682 25.9692 12.9714 25.9692H22.545C22.5584 25.9692 22.5719 25.9683 22.5853 25.9668C22.5892 25.9668 22.5925 25.9659 22.5964 25.9654C22.6069 25.964 22.6175 25.962 22.6276 25.9596C22.6309 25.9587 22.6338 25.9582 22.6372 25.9572C22.6506 25.9539 22.6636 25.9496 22.6765 25.9448C22.677 25.9448 22.678 25.9443 22.6784 25.9438C22.6904 25.939 22.7024 25.9332 22.714 25.927C22.7154 25.926 22.7168 25.9256 22.7183 25.9251L29.4992 22.2032C29.601 22.147 29.6696 22.0457 29.6836 21.93L30.4818 15.2336C30.4818 15.2336 30.4818 15.2326 30.4818 15.2321C30.4832 15.2192 30.4842 15.2057 30.4842 15.1923V15.1918ZM20.6423 15.5153L28.7293 15.5456L27.153 16.4105L19.066 16.3803L20.6423 15.5153ZM23.2511 18.5528H15.1088L16.8796 17.5808L24.9666 17.611L23.2506 18.5528H23.2511ZM14.0893 19.2728H22.9376L22.6117 22.0064L22.2253 25.2492H13.377L14.0893 19.2728ZM23.6788 19.1393L25.6444 18.0603L25.4984 19.2843C25.4644 19.5694 25.7672 19.7734 26.0188 19.6356L27.4026 18.8758C27.5284 18.8067 27.6133 18.6809 27.6306 18.5384L27.8308 16.8603L29.6437 15.8652C29.6533 15.8772 29.6648 15.8883 29.6778 15.8964L29.6327 16.2737C29.5727 16.292 29.5285 16.3472 29.5285 16.4129C29.5285 16.4667 29.5578 16.5132 29.601 16.5387L29.5568 16.9107C29.4935 16.9265 29.4464 16.9836 29.4464 17.0518C29.4464 17.108 29.4781 17.156 29.5247 17.1804L29.481 17.5476C29.4148 17.5616 29.3644 17.6201 29.3644 17.6907C29.3644 17.7488 29.3989 17.7987 29.4479 17.8222L29.4047 18.1856C29.3351 18.1971 29.2823 18.2566 29.2823 18.3296C29.2823 18.39 29.3192 18.4419 29.3716 18.4644L29.3288 18.8244C29.2564 18.8331 29.2002 18.894 29.2002 18.9689C29.2002 19.0313 29.2396 19.0846 29.2952 19.1052L29.2525 19.4628C29.1772 19.4691 29.1181 19.531 29.1181 19.6078C29.1181 19.6726 29.1604 19.7268 29.2189 19.746L29.1767 20.1012C29.0984 20.1041 29.036 20.168 29.036 20.2467C29.036 20.3134 29.0812 20.3691 29.1426 20.3868L29.1004 20.7396C29.0197 20.7396 28.954 20.8049 28.954 20.886C28.954 20.9552 29.002 21.0123 29.0663 21.0276L29.0245 21.3795C29.0245 21.3795 29.0207 21.379 29.0183 21.379C28.9376 21.379 28.8719 21.4443 28.8719 21.5254C28.8719 21.5931 28.918 21.6492 28.9799 21.666L28.653 21.8456C28.6578 21.8312 28.6612 21.8158 28.6612 21.7995C28.6612 21.7188 28.5959 21.6531 28.5148 21.6531C28.4336 21.6531 28.3684 21.7184 28.3684 21.7995C28.3684 21.8681 28.4154 21.9248 28.4792 21.9411L28.1485 22.1225C28.1538 22.1072 28.1576 22.0908 28.1576 22.0736C28.1576 21.9929 28.0924 21.9272 28.0112 21.9272C27.9301 21.9272 27.8648 21.9924 27.8648 22.0736C27.8648 22.1432 27.9133 22.2008 27.9786 22.2156L27.6445 22.399C27.6508 22.3827 27.6546 22.3654 27.6546 22.3472C27.6546 22.2665 27.5893 22.2008 27.5082 22.2008C27.4271 22.2008 27.3618 22.266 27.3618 22.3472C27.3618 22.4177 27.4117 22.4763 27.478 22.4902L27.14 22.6755C27.1468 22.6587 27.1511 22.64 27.1511 22.6208C27.1511 22.5401 27.0858 22.4744 27.0047 22.4744C26.9236 22.4744 26.8583 22.5396 26.8583 22.6208C26.8583 22.6923 26.9101 22.7518 26.9783 22.7643L26.6356 22.9524C26.6432 22.9347 26.6476 22.915 26.6476 22.8948C26.6476 22.8142 26.5823 22.7484 26.5012 22.7484C26.42 22.7484 26.3548 22.8137 26.3548 22.8948C26.3548 22.9678 26.4085 23.0278 26.4781 23.0388L26.1301 23.2299C26.1388 23.2112 26.144 23.1905 26.144 23.1689C26.144 23.0883 26.0788 23.0225 25.9976 23.0225C25.9165 23.0225 25.8512 23.0878 25.8512 23.1689C25.8512 23.2433 25.9069 23.3038 25.9784 23.3134L25.6247 23.5073C25.6343 23.4876 25.6405 23.466 25.6405 23.443C25.6405 23.3624 25.5752 23.2966 25.4941 23.2966C25.413 23.2966 25.3477 23.3619 25.3477 23.443C25.3477 23.5184 25.4053 23.5798 25.4788 23.5875L25.1197 23.7848C25.1303 23.7646 25.137 23.7416 25.137 23.7166C25.137 23.636 25.0717 23.5702 24.9906 23.5702C24.9095 23.5702 24.8442 23.6355 24.8442 23.7166C24.8442 23.7977 24.9037 23.8558 24.9786 23.8616L24.6138 24.0617C24.6258 24.0406 24.633 24.0166 24.633 23.9902C24.633 23.9096 24.5677 23.8438 24.4866 23.8438C24.4055 23.8438 24.3402 23.9091 24.3402 23.9902C24.3402 24.0713 24.4016 24.1313 24.4784 24.1356L22.9832 24.9564L23.6768 19.1388L23.6788 19.1393Z" fill="white"/>
<path d="M12.3564 18.6215H10.0275C9.82876 18.6215 9.66748 18.7827 9.66748 18.9815C9.66748 19.1802 9.82876 19.3415 10.0275 19.3415H12.3564C12.5552 19.3415 12.7164 19.1802 12.7164 18.9815C12.7164 18.7827 12.5552 18.6215 12.3564 18.6215Z" fill="white"/>
<path d="M12.3688 17.0974H14.9781C15.1768 17.0974 15.3381 16.9362 15.3381 16.7374C15.3381 16.5387 15.1768 16.3774 14.9781 16.3774H12.3688C12.1701 16.3774 12.0088 16.5387 12.0088 16.7374C12.0088 16.9362 12.1701 17.0974 12.3688 17.0974Z" fill="white"/>
<path d="M15.1828 15.3334H17.792C17.9908 15.3334 18.152 15.1721 18.152 14.9734C18.152 14.7747 17.9908 14.6134 17.792 14.6134H15.1828C14.984 14.6134 14.8228 14.7747 14.8228 14.9734C14.8228 15.1721 14.984 15.3334 15.1828 15.3334Z" fill="white"/>
<path d="M11.8584 21.5236H9.52943C9.33071 21.5236 9.16943 21.6848 9.16943 21.8836C9.16943 22.0823 9.33071 22.2436 9.52943 22.2436H11.8584C12.0571 22.2436 12.2184 22.0823 12.2184 21.8836C12.2184 21.6848 12.0571 21.5236 11.8584 21.5236Z" fill="white"/>
<path d="M11.5181 24.5504H9.1891C8.99038 24.5504 8.8291 24.7117 8.8291 24.9104C8.8291 25.1091 8.99038 25.2704 9.1891 25.2704H11.5181C11.7168 25.2704 11.8781 25.1091 11.8781 24.9104C11.8781 24.7117 11.7168 24.5504 11.5181 24.5504Z" fill="white"/>
<path d="M21.4438 20.3691C21.4438 20.3662 21.4438 20.3633 21.4438 20.3605C21.4438 20.3509 21.4438 20.3417 21.4428 20.3321C21.4428 20.3288 21.4419 20.3249 21.4414 20.3216C21.4404 20.3129 21.4395 20.3043 21.4376 20.2957C21.4366 20.2918 21.4361 20.288 21.4352 20.2846C21.4332 20.2765 21.4313 20.2683 21.4289 20.2606C21.4275 20.2563 21.426 20.2525 21.4246 20.2481C21.4222 20.2409 21.4193 20.2337 21.4164 20.2265C21.4145 20.2217 21.4126 20.2174 21.4102 20.2126C21.4073 20.2064 21.4044 20.2001 21.4011 20.1939C21.3982 20.1886 21.3953 20.1838 21.3924 20.179C21.3905 20.1757 21.3891 20.1728 21.3872 20.1694C21.3857 20.167 21.3838 20.1646 21.3819 20.1622C21.3785 20.1574 21.3752 20.1526 21.3718 20.1483C21.3675 20.1425 21.3632 20.1373 21.3584 20.1315C21.3564 20.1296 21.355 20.1272 21.3536 20.1253C21.3521 20.1233 21.3502 20.1219 21.3483 20.12C21.343 20.1142 21.3377 20.1085 21.332 20.1032C21.3286 20.1003 21.3257 20.0969 21.3224 20.0941C21.3161 20.0888 21.3099 20.0835 21.3032 20.0787C21.2998 20.0763 21.2969 20.0739 21.2936 20.0715C21.2868 20.0667 21.2796 20.0619 21.2724 20.0576C21.2691 20.0557 21.2657 20.0533 21.2624 20.0513C21.2552 20.047 21.2475 20.0437 21.2403 20.0398C21.2369 20.0379 21.2331 20.0365 21.2297 20.0345C21.222 20.0312 21.2139 20.0283 21.2057 20.0254C21.2024 20.024 21.199 20.0225 21.1956 20.0216C21.1851 20.0182 21.1745 20.0153 21.1635 20.0129C21.1625 20.0129 21.1616 20.0125 21.1606 20.012C21.1486 20.0096 21.1366 20.0077 21.1246 20.0062C21.1212 20.0062 21.1184 20.0062 21.115 20.0057C21.1059 20.0048 21.0968 20.0043 21.0876 20.0043C21.0867 20.0043 21.0857 20.0043 21.0852 20.0043L15.6824 19.9841C15.68 19.9841 15.6776 19.9841 15.6752 19.9841C15.6704 19.9841 15.6656 19.9841 15.6608 19.9846C15.6526 19.9846 15.6449 19.9856 15.6372 19.9865C15.6348 19.9865 15.6329 19.987 15.6305 19.9875C15.5105 20.0038 15.4097 20.0792 15.3579 20.1848C15.3569 20.1867 15.3564 20.1881 15.3555 20.1901C15.3516 20.1982 15.3483 20.2064 15.3449 20.2145C15.3435 20.2184 15.342 20.2217 15.3411 20.2256C15.3387 20.2318 15.3368 20.2385 15.3348 20.2448C15.3334 20.2501 15.332 20.2553 15.3305 20.2606C15.3291 20.2659 15.3281 20.2712 15.3272 20.2765C15.3262 20.2827 15.3248 20.2889 15.3243 20.2947C15.3243 20.2966 15.3233 20.2985 15.3233 20.3009L14.8726 24.0805C14.8606 24.1822 14.8923 24.2845 14.9604 24.3617C15.0286 24.4385 15.126 24.4827 15.2288 24.4832L20.6316 24.5033H20.6331C20.8155 24.5033 20.9691 24.367 20.9907 24.1861L21.4414 20.407C21.4428 20.3945 21.4438 20.3825 21.4438 20.3701V20.3691ZM19.8641 20.719L18.1755 21.8033L16.7465 20.7075L19.8641 20.719ZM20.3139 23.7814L15.6358 23.7641L15.9636 21.0137L17.9384 22.5286C18.0027 22.5781 18.08 22.603 18.1577 22.603C18.2249 22.603 18.2926 22.5843 18.3521 22.5459L20.6364 21.079L20.3144 23.7814H20.3139Z" fill="white"/>
</svg>
