<svg width="140" height="15" viewBox="0 0 140 15" fill="none" xmlns="http://www.w3.org/2000/svg">
<path d="M116.532 14.2222C110.004 14.2222 106.635 11.1832 103.663 8.50339C100.833 5.95088 98.3922 3.74269 93.3013 3.74269C88.2104 3.74269 85.7698 5.95088 82.9398 8.50339C79.9677 11.1832 76.5987 14.2222 70.0704 14.2222C63.5421 14.2222 60.1731 11.1832 57.201 8.50339C54.371 5.95088 51.9304 3.74269 46.8395 3.74269C41.7486 3.74269 39.308 5.95088 36.4781 8.50339C33.5059 11.1832 30.137 14.2222 23.6086 14.2222C17.0803 14.2222 13.7114 11.1832 10.7392 8.50339C7.91676 5.95088 5.46865 3.74269 0.385254 3.74269V0C6.91356 0 10.2825 3.03906 13.2547 5.71883C16.0846 8.27135 18.5253 10.4795 23.6161 10.4795C28.707 10.4795 31.1476 8.27135 33.9776 5.71883C36.9497 3.03906 40.3187 0 46.847 0C53.3753 0 56.7443 3.03906 59.7165 5.71883C62.5464 8.27135 64.987 10.4795 70.0779 10.4795C75.1688 10.4795 77.6094 8.27135 80.4393 5.71883C83.4115 3.03906 86.7805 0 93.3088 0C99.8371 0 103.206 3.03906 106.178 5.71883C109.008 8.27135 111.449 10.4795 116.54 10.4795C121.631 10.4795 124.071 8.27135 126.901 5.71883C129.873 3.03906 133.242 0 139.771 0V3.74269C134.68 3.74269 132.239 5.95088 129.409 8.50339C126.437 11.1832 123.068 14.2222 116.54 14.2222H116.532Z" fill="#F3F4F9"/>
</svg>
